<svg width="287" height="93" viewBox="0 0 287 93" fill="none" xmlns="http://www.w3.org/2000/svg">
<path d="M91.8 48V20H108.84V22.76H95.16V32.6H106.8V35.32H95.16V48H91.8ZM114.806 48.48C113.233 48.48 111.913 48.2 110.846 47.64C109.779 47.08 108.979 46.3333 108.446 45.4C107.939 44.4667 107.686 43.4533 107.686 42.36C107.686 41 108.033 39.8533 108.726 38.92C109.446 37.9867 110.446 37.28 111.726 36.8C113.033 36.2933 114.566 36.04 116.326 36.04H121.686C121.686 34.7333 121.486 33.6533 121.086 32.8C120.686 31.9467 120.113 31.32 119.366 30.92C118.619 30.4933 117.726 30.28 116.686 30.28C115.379 30.28 114.246 30.6133 113.286 31.28C112.326 31.9467 111.739 32.9733 111.526 34.36H108.086C108.246 32.92 108.713 31.7067 109.486 30.72C110.286 29.7333 111.299 28.9867 112.526 28.48C113.779 27.9467 115.166 27.68 116.686 27.68C118.579 27.68 120.139 28.0267 121.366 28.72C122.619 29.3867 123.539 30.3333 124.126 31.56C124.739 32.76 125.046 34.1733 125.046 35.8V48H122.246L121.926 44.6H121.766C121.393 45.24 120.953 45.8 120.446 46.28C119.966 46.76 119.433 47.16 118.846 47.48C118.259 47.8 117.619 48.04 116.926 48.2C116.259 48.3867 115.553 48.48 114.806 48.48ZM115.406 45.64C116.419 45.64 117.313 45.4533 118.086 45.08C118.859 44.68 119.513 44.1467 120.046 43.48C120.579 42.8133 120.979 42.0667 121.246 41.24C121.539 40.3867 121.686 39.52 121.686 38.64H116.606C115.299 38.64 114.246 38.8 113.446 39.12C112.646 39.4133 112.073 39.8267 111.726 40.36C111.379 40.8933 111.206 41.5067 111.206 42.2C111.206 42.8933 111.366 43.5067 111.686 44.04C112.033 44.5467 112.513 44.9467 113.126 45.24C113.766 45.5067 114.526 45.64 115.406 45.64ZM112.206 26.44V23.4L120.446 18.56H120.606V21.76L112.206 26.44ZM135.807 48.48C133.727 48.48 131.94 48.0533 130.447 47.2C128.98 46.32 127.847 45.1067 127.047 43.56C126.247 41.9867 125.847 40.16 125.847 38.08C125.847 36 126.274 34.1867 127.127 32.64C128.007 31.0667 129.194 29.8533 130.687 29C132.207 28.12 133.914 27.68 135.807 27.68C138.18 27.68 140.167 28.2933 141.767 29.52C143.367 30.7467 144.38 32.3867 144.807 34.44H141.367C141.1 33.08 140.447 32.0533 139.407 31.36C138.367 30.64 137.154 30.28 135.767 30.28C134.647 30.28 133.594 30.5733 132.607 31.16C131.62 31.72 130.82 32.5733 130.207 33.72C129.594 34.8667 129.287 36.32 129.287 38.08C129.287 39.3333 129.447 40.44 129.767 41.4C130.114 42.3333 130.58 43.12 131.167 43.76C131.754 44.4 132.434 44.88 133.207 45.2C134.007 45.52 134.86 45.68 135.767 45.68C136.7 45.68 137.554 45.5333 138.327 45.24C139.1 44.92 139.754 44.4667 140.287 43.88C140.82 43.2667 141.18 42.5467 141.367 41.72H144.807C144.38 43.72 143.367 45.3467 141.767 46.6C140.167 47.8533 138.18 48.48 135.807 48.48ZM146.503 48V28.16H149.863V48H146.503ZM148.183 24.2C147.517 24.2 146.957 23.9733 146.503 23.52C146.05 23.0667 145.823 22.5067 145.823 21.84C145.823 21.2 146.05 20.6533 146.503 20.2C146.957 19.7467 147.517 19.52 148.183 19.52C148.823 19.52 149.37 19.7467 149.823 20.2C150.277 20.6533 150.503 21.2133 150.503 21.88C150.503 22.52 150.277 23.0667 149.823 23.52C149.37 23.9733 148.823 24.2 148.183 24.2ZM152.314 48V20H155.674V48H152.314ZM105.2 82.48C102.453 82.48 100.04 81.88 97.96 80.68C95.9067 79.4533 94.2933 77.76 93.12 75.6C91.9733 73.4133 91.4 70.88 91.4 68C91.4 65.1467 91.9733 62.64 93.12 60.48C94.2933 58.2933 95.9067 56.5867 97.96 55.36C100.04 54.1333 102.453 53.52 105.2 53.52C107.973 53.52 110.387 54.1333 112.44 55.36C114.52 56.5867 116.133 58.2933 117.28 60.48C118.427 62.64 119 65.1467 119 68C119 70.88 118.427 73.4133 117.28 75.6C116.133 77.76 114.52 79.4533 112.44 80.68C110.387 81.88 107.973 82.48 105.2 82.48ZM105.2 79.52C107.253 79.52 109.053 79.0667 110.6 78.16C112.173 77.2267 113.387 75.9067 114.24 74.2C115.12 72.4667 115.56 70.4 115.56 68C115.56 65.6 115.12 63.5467 114.24 61.84C113.387 60.1067 112.173 58.7867 110.6 57.88C109.053 56.9733 107.253 56.52 105.2 56.52C103.147 56.52 101.333 56.9733 99.76 57.88C98.2133 58.7867 97 60.1067 96.12 61.84C95.2667 63.5467 94.84 65.6 94.84 68C94.84 70.4 95.2667 72.4667 96.12 74.2C97 75.9067 98.2133 77.2267 99.76 78.16C101.333 79.0667 103.147 79.52 105.2 79.52ZM120.391 82V62.16H123.351L123.671 66.48H123.831C124.497 65.04 125.151 63.9867 125.791 63.32C126.431 62.6267 127.164 62.1867 127.991 62C128.844 61.7867 129.897 61.68 131.151 61.68V65.2H130.271C129.204 65.2 128.257 65.3467 127.431 65.64C126.604 65.9067 125.924 66.3067 125.391 66.84C124.857 67.3733 124.444 68.0533 124.151 68.88C123.884 69.68 123.751 70.6267 123.751 71.72V82H120.391ZM139.94 90.48C138.153 90.48 136.567 90.24 135.18 89.76C133.793 89.3067 132.713 88.6267 131.94 87.72C131.167 86.84 130.78 85.76 130.78 84.48C130.78 83.8933 130.9 83.2933 131.14 82.68C131.407 82.0667 131.847 81.4667 132.46 80.88C133.1 80.2667 133.993 79.6933 135.14 79.16L137.38 80.52C136.02 81.1067 135.127 81.72 134.7 82.36C134.273 83 134.06 83.7067 134.06 84.48C134.06 85.1733 134.273 85.7733 134.7 86.28C135.153 86.8133 135.82 87.2133 136.7 87.48C137.58 87.7467 138.66 87.88 139.94 87.88C141.247 87.88 142.3 87.72 143.1 87.4C143.9 87.08 144.487 86.64 144.86 86.08C145.233 85.52 145.42 84.88 145.42 84.16C145.42 83.3067 145.073 82.6267 144.38 82.12C143.713 81.64 142.433 81.3467 140.54 81.24C138.967 81.1333 137.647 80.9867 136.58 80.8C135.54 80.6133 134.673 80.4 133.98 80.16C133.287 79.8933 132.7 79.6 132.22 79.28C131.767 78.96 131.353 78.6267 130.98 78.28V77.36L134.86 73.48L136.78 74.44L133.78 78.16L134.06 76.8C134.3 76.96 134.553 77.12 134.82 77.28C135.113 77.44 135.513 77.6 136.02 77.76C136.527 77.8933 137.193 78.0267 138.02 78.16C138.873 78.2933 139.967 78.4133 141.3 78.52C143.087 78.6533 144.527 78.9467 145.62 79.4C146.713 79.8267 147.5 80.4267 147.98 81.2C148.487 81.9733 148.74 82.92 148.74 84.04C148.74 85.0533 148.42 86.0533 147.78 87.04C147.167 88.0267 146.207 88.84 144.9 89.48C143.62 90.1467 141.967 90.48 139.94 90.48ZM139.9 75.76C138.22 75.76 136.793 75.4533 135.62 74.84C134.447 74.2 133.553 73.3467 132.94 72.28C132.327 71.2133 132.02 70.0267 132.02 68.72C132.02 67.4133 132.327 66.24 132.94 65.2C133.553 64.1333 134.447 63.28 135.62 62.64C136.793 62 138.22 61.68 139.9 61.68C141.58 61.68 143.007 62 144.18 62.64C145.353 63.28 146.247 64.1333 146.86 65.2C147.473 66.24 147.78 67.4133 147.78 68.72C147.78 70.0267 147.473 71.2133 146.86 72.28C146.247 73.3467 145.353 74.2 144.18 74.84C143.007 75.4533 141.58 75.76 139.9 75.76ZM139.9 73.2C141.313 73.2 142.433 72.8267 143.26 72.08C144.113 71.3067 144.54 70.1867 144.54 68.72C144.54 67.2267 144.113 66.1067 143.26 65.36C142.433 64.6133 141.313 64.24 139.9 64.24C138.487 64.24 137.353 64.6133 136.5 65.36C135.647 66.1067 135.22 67.2267 135.22 68.72C135.22 70.1867 135.647 71.3067 136.5 72.08C137.353 72.8267 138.487 73.2 139.9 73.2ZM143.1 64.6L142.1 62.16H150.34V64L143.1 64.6ZM158.09 82.48C156.517 82.48 155.197 82.2 154.13 81.64C153.064 81.08 152.264 80.3333 151.73 79.4C151.224 78.4667 150.97 77.4533 150.97 76.36C150.97 75 151.317 73.8533 152.01 72.92C152.73 71.9867 153.73 71.28 155.01 70.8C156.317 70.2933 157.85 70.04 159.61 70.04H164.97C164.97 68.7333 164.77 67.6533 164.37 66.8C163.97 65.9467 163.397 65.32 162.65 64.92C161.904 64.4933 161.01 64.28 159.97 64.28C158.664 64.28 157.53 64.6133 156.57 65.28C155.61 65.9467 155.024 66.9733 154.81 68.36H151.37C151.53 66.92 151.997 65.7067 152.77 64.72C153.57 63.7333 154.584 62.9867 155.81 62.48C157.064 61.9467 158.45 61.68 159.97 61.68C161.864 61.68 163.424 62.0267 164.65 62.72C165.904 63.3867 166.824 64.3333 167.41 65.56C168.024 66.76 168.33 68.1733 168.33 69.8V82H165.53L165.21 78.6H165.05C164.677 79.24 164.237 79.8 163.73 80.28C163.25 80.76 162.717 81.16 162.13 81.48C161.544 81.8 160.904 82.04 160.21 82.2C159.544 82.3867 158.837 82.48 158.09 82.48ZM158.69 79.64C159.704 79.64 160.597 79.4533 161.37 79.08C162.144 78.68 162.797 78.1467 163.33 77.48C163.864 76.8133 164.264 76.0667 164.53 75.24C164.824 74.3867 164.97 73.52 164.97 72.64H159.89C158.584 72.64 157.53 72.8 156.73 73.12C155.93 73.4133 155.357 73.8267 155.01 74.36C154.664 74.8933 154.49 75.5067 154.49 76.2C154.49 76.8933 154.65 77.5067 154.97 78.04C155.317 78.5467 155.797 78.9467 156.41 79.24C157.05 79.5067 157.81 79.64 158.69 79.64ZM169.731 82V62.16H172.691L173.011 65.28H173.171C173.865 64.1867 174.771 63.32 175.891 62.68C177.011 62.0133 178.358 61.68 179.931 61.68C181.451 61.68 182.785 62 183.931 62.64C185.078 63.2533 185.958 64.2133 186.571 65.52C187.211 66.8 187.531 68.4267 187.531 70.4V82H184.171V70.76C184.171 68.7067 183.731 67.16 182.851 66.12C181.971 65.08 180.705 64.56 179.051 64.56C177.905 64.56 176.878 64.84 175.971 65.4C175.091 65.96 174.385 66.7733 173.851 67.84C173.345 68.88 173.091 70.1733 173.091 71.72V82H169.731ZM189.593 82V62.16H192.953V82H189.593ZM191.273 58.2C190.606 58.2 190.046 57.9733 189.593 57.52C189.139 57.0667 188.913 56.5067 188.913 55.84C188.913 55.2 189.139 54.6533 189.593 54.2C190.046 53.7467 190.606 53.52 191.273 53.52C191.913 53.52 192.459 53.7467 192.913 54.2C193.366 54.6533 193.593 55.2133 193.593 55.88C193.593 56.52 193.366 57.0667 192.913 57.52C192.459 57.9733 191.913 58.2 191.273 58.2ZM194.603 82V79.44L205.803 64.76H194.803V62.16H209.403V64.72L198.203 79.4H209.603V82H194.603ZM217.315 82.48C215.742 82.48 214.422 82.2 213.355 81.64C212.289 81.08 211.489 80.3333 210.955 79.4C210.449 78.4667 210.195 77.4533 210.195 76.36C210.195 75 210.542 73.8533 211.235 72.92C211.955 71.9867 212.955 71.28 214.235 70.8C215.542 70.2933 217.075 70.04 218.835 70.04H224.195C224.195 68.7333 223.995 67.6533 223.595 66.8C223.195 65.9467 222.622 65.32 221.875 64.92C221.129 64.4933 220.235 64.28 219.195 64.28C217.889 64.28 216.755 64.6133 215.795 65.28C214.835 65.9467 214.249 66.9733 214.035 68.36H210.595C210.755 66.92 211.222 65.7067 211.995 64.72C212.795 63.7333 213.809 62.9867 215.035 62.48C216.289 61.9467 217.675 61.68 219.195 61.68C221.089 61.68 222.649 62.0267 223.875 62.72C225.129 63.3867 226.049 64.3333 226.635 65.56C227.249 66.76 227.555 68.1733 227.555 69.8V82H224.755L224.435 78.6H224.275C223.902 79.24 223.462 79.8 222.955 80.28C222.475 80.76 221.942 81.16 221.355 81.48C220.769 81.8 220.129 82.04 219.435 82.2C218.769 82.3867 218.062 82.48 217.315 82.48ZM217.915 79.64C218.929 79.64 219.822 79.4533 220.595 79.08C221.369 78.68 222.022 78.1467 222.555 77.48C223.089 76.8133 223.489 76.0667 223.755 75.24C224.049 74.3867 224.195 73.52 224.195 72.64H219.115C217.809 72.64 216.755 72.8 215.955 73.12C215.155 73.4133 214.582 73.8267 214.235 74.36C213.889 74.8933 213.715 75.5067 213.715 76.2C213.715 76.8933 213.875 77.5067 214.195 78.04C214.542 78.5467 215.022 78.9467 215.635 79.24C216.275 79.5067 217.035 79.64 217.915 79.64ZM238.316 82.48C236.236 82.48 234.45 82.0533 232.956 81.2C231.49 80.32 230.356 79.1067 229.556 77.56C228.756 75.9867 228.356 74.16 228.356 72.08C228.356 70 228.783 68.1867 229.636 66.64C230.516 65.0667 231.703 63.8533 233.196 63C234.716 62.12 236.423 61.68 238.316 61.68C240.69 61.68 242.676 62.2933 244.276 63.52C245.876 64.7467 246.89 66.3867 247.316 68.44H243.876C243.61 67.08 242.956 66.0533 241.916 65.36C240.876 64.64 239.663 64.28 238.276 64.28C237.156 64.28 236.103 64.5733 235.116 65.16C234.13 65.72 233.33 66.5733 232.716 67.72C232.103 68.8667 231.796 70.32 231.796 72.08C231.796 73.3333 231.956 74.44 232.276 75.4C232.623 76.3333 233.09 77.12 233.676 77.76C234.263 78.4 234.943 78.88 235.716 79.2C236.516 79.52 237.37 79.68 238.276 79.68C239.21 79.68 240.063 79.5333 240.836 79.24C241.61 78.92 242.263 78.4667 242.796 77.88C243.33 77.2667 243.69 76.5467 243.876 75.72H247.316C246.89 77.72 245.876 79.3467 244.276 80.6C242.676 81.8533 240.69 82.48 238.316 82.48ZM235.156 92.4V90.28H238.836C239.77 90.28 240.45 90.12 240.876 89.8C241.33 89.48 241.556 89 241.556 88.36C241.556 87.7733 241.33 87.32 240.876 87C240.45 86.7067 239.77 86.56 238.836 86.56H236.876V81.76H239.116V84.56C240.13 84.5333 241.023 84.6533 241.796 84.92C242.57 85.2133 243.17 85.6533 243.596 86.24C244.05 86.8267 244.276 87.5467 244.276 88.4C244.276 89.2267 244.063 89.9333 243.636 90.52C243.236 91.1333 242.663 91.6 241.916 91.92C241.196 92.24 240.37 92.4 239.436 92.4H235.156ZM255.053 82.48C253.479 82.48 252.159 82.2 251.093 81.64C250.026 81.08 249.226 80.3333 248.693 79.4C248.186 78.4667 247.933 77.4533 247.933 76.36C247.933 75 248.279 73.8533 248.973 72.92C249.693 71.9867 250.693 71.28 251.973 70.8C253.279 70.2933 254.813 70.04 256.573 70.04H261.933C261.933 68.7333 261.733 67.6533 261.333 66.8C260.933 65.9467 260.359 65.32 259.613 64.92C258.866 64.4933 257.973 64.28 256.933 64.28C255.626 64.28 254.493 64.6133 253.533 65.28C252.573 65.9467 251.986 66.9733 251.773 68.36H248.333C248.493 66.92 248.959 65.7067 249.733 64.72C250.533 63.7333 251.546 62.9867 252.773 62.48C254.026 61.9467 255.413 61.68 256.933 61.68C258.826 61.68 260.386 62.0267 261.613 62.72C262.866 63.3867 263.786 64.3333 264.373 65.56C264.986 66.76 265.293 68.1733 265.293 69.8V82H262.493L262.173 78.6H262.013C261.639 79.24 261.199 79.8 260.693 80.28C260.213 80.76 259.679 81.16 259.093 81.48C258.506 81.8 257.866 82.04 257.173 82.2C256.506 82.3867 255.799 82.48 255.053 82.48ZM255.653 79.64C256.666 79.64 257.559 79.4533 258.333 79.08C259.106 78.68 259.759 78.1467 260.293 77.48C260.826 76.8133 261.226 76.0667 261.493 75.24C261.786 74.3867 261.933 73.52 261.933 72.64H256.853C255.546 72.64 254.493 72.8 253.693 73.12C252.893 73.4133 252.319 73.8267 251.973 74.36C251.626 74.8933 251.453 75.5067 251.453 76.2C251.453 76.8933 251.613 77.5067 251.933 78.04C252.279 78.5467 252.759 78.9467 253.373 79.24C254.013 79.5067 254.773 79.64 255.653 79.64ZM258.853 59.52C258.133 59.52 257.533 59.36 257.053 59.04C256.573 58.72 256.119 58.4133 255.693 58.12C255.293 57.8 254.813 57.64 254.253 57.64C253.826 57.64 253.453 57.7867 253.133 58.08C252.839 58.3733 252.653 58.8267 252.573 59.44H250.613C250.799 58.1067 251.226 57.1067 251.893 56.44C252.586 55.7467 253.426 55.4 254.413 55.4C255.133 55.4 255.719 55.56 256.173 55.88C256.653 56.1733 257.106 56.48 257.533 56.8C257.959 57.12 258.453 57.28 259.013 57.28C259.466 57.28 259.839 57.1333 260.133 56.84C260.453 56.52 260.653 56.0667 260.733 55.48H262.693C262.533 56.7867 262.106 57.7867 261.413 58.48C260.719 59.1733 259.866 59.52 258.853 59.52ZM275.974 82.48C274.107 82.48 272.427 82.0533 270.934 81.2C269.44 80.3467 268.254 79.1467 267.374 77.6C266.52 76.0267 266.094 74.1867 266.094 72.08C266.094 69.9733 266.534 68.1467 267.414 66.6C268.294 65.0267 269.48 63.8133 270.974 62.96C272.494 62.1067 274.187 61.68 276.054 61.68C277.92 61.68 279.6 62.1067 281.094 62.96C282.587 63.8133 283.76 65.0267 284.614 66.6C285.494 68.1467 285.934 69.9733 285.934 72.08C285.934 74.1867 285.494 76.0267 284.614 77.6C283.734 79.1467 282.534 80.3467 281.014 81.2C279.52 82.0533 277.84 82.48 275.974 82.48ZM275.974 79.88C277.12 79.88 278.187 79.6 279.174 79.04C280.16 78.4533 280.96 77.5867 281.574 76.44C282.187 75.2933 282.494 73.84 282.494 72.08C282.494 70.32 282.187 68.8667 281.574 67.72C280.987 66.5467 280.2 65.68 279.214 65.12C278.227 64.56 277.174 64.28 276.054 64.28C274.934 64.28 273.867 64.56 272.854 65.12C271.867 65.68 271.067 66.5467 270.454 67.72C269.84 68.8667 269.534 70.32 269.534 72.08C269.534 73.84 269.84 75.2933 270.454 76.44C271.067 77.5867 271.854 78.4533 272.814 79.04C273.8 79.6 274.854 79.88 275.974 79.88Z" fill="white"/>
<rect x="0.5" y="0.5" width="81" height="81" rx="9.5" stroke="white"/>
<rect x="20.5" y="20.5" width="61" height="61" rx="9.5" stroke="white"/>
<rect x="29.5" y="29.5" width="44" height="44" rx="9.5" stroke="white"/>
</svg>
